Coordinates
version=1
nRows=6
nColumns=63
inDegrees=yes

Units are S.I. units (second, meters, Newtons, ...)
If the header above contains a line with 'inDegrees', this indicates whether rotational values are in degrees (yes) or radians (no).

endheader
time	pelvis_tilt	pelvis_list	pelvis_rotation	pelvis_tx	pelvis_ty	pelvis_tz	hip_flexion_r	hip_adduction_r	hip_rotation_r	knee_angle_r	knee_angle_r_beta	ankle_angle_r	subtalar_angle_r	mtp_angle_r	hip_flexion_l	hip_adduction_l	hip_rotation_l	knee_angle_l	knee_angle_l_beta	ankle_angle_l	subtalar_angle_l	mtp_angle_l	L5_S1_Flex_Ext	L5_S1_Lat_Bending	L5_S1_axial_rotation	L4_L5_Flex_Ext	L4_L5_Lat_Bending	L4_L5_axial_rotation	L3_L4_Flex_Ext	L3_L4_Lat_Bending	L3_L4_axial_rotation	L2_L3_Flex_Ext	L2_L3_Lat_Bending	L2_L3_axial_rotation	L1_L2_Flex_Ext	L1_L2_Lat_Bending	L1_L2_axial_rotation	L1_T12_Flex_Ext	L1_T12_Lat_Bending	L1_T12_axial_rotation	Abs_r3	Abs_r2	Abs_r1	Abs_t1	Abs_t2	neck_flexion	neck_bending	neck_rotation	arm_flex_r	arm_add_r	arm_rot_r	elbow_flex_r	pro_sup_r	wrist_flex_r	wrist_dev_r	arm_flex_l	arm_add_l	arm_rot_l	elbow_flex_l	pro_sup_l	wrist_flex_l	wrist_dev_l
      0.00000000	      5.87607259	     -1.82794704	    106.79087836	      0.24512255	      0.86154823	      0.63708155	     -1.65260029	      7.27323142	    -24.62584377	      6.36355036	      0.11106491	     29.27885864	      3.18430060	      0.00000000	     -2.27382163	     -7.76908968	     35.06969942	      1.00836292	      0.01759925	     26.03692727	    -16.09628527	      0.00000000	     -0.00709573	      1.15476563	     -2.96454741	     -0.01317748	      1.53583829	     -3.14983162	     -0.01165757	      2.80769716	     -3.14983162	     -0.00810971	      2.80769716	     -2.59397898	     -0.00658909	      2.35479808	     -2.40869477	     -0.00405450	      1.78873197	     -2.22341055	     -0.05068407	     13.06293979	    -16.48792330	      0.00000000	      0.00000000	     17.93039934	     -2.19057507	      0.48456164	     10.57143117	    -12.74590391	     79.14312777	     35.56308320	     87.98656910	    -14.78317389	      2.42762334	     13.93749305	      0.23958672	     72.14371130	     31.39066413	     83.43286198	      5.81493962	      2.33732923
      0.01666667	      5.86509236	     -2.35993704	    105.47790887	      0.24584226	      0.86119560	      0.63941462	     -0.56092536	      6.75213643	    -24.10284620	      7.37899686	      0.12878779	     30.53031209	      4.24759862	      0.00000000	     -1.83164833	     -7.38241299	     32.70147186	      1.11149038	      0.01939917	     27.54176047	    -16.00322229	      0.00000000	     -0.01540744	      1.17333181	     -2.62800693	     -0.02861316	      1.56053131	     -2.79225736	     -0.02531289	      2.85283897	     -2.79225736	     -0.01760916	      2.85283897	     -2.29950606	     -0.01430735	      2.39265823	     -2.13525563	     -0.00880381	      1.81749098	     -1.97100520	     -0.11005381	     13.27296413	    -14.61618614	      0.00000000	      0.00000000	     18.72295545	     -2.03532654	      1.26112328	     10.25699363	    -12.57812168	     76.84604719	     34.90808930	     87.15582768	    -11.79955708	      0.90613055	     14.24880500	      0.68367208	     70.37692841	     31.41910316	     81.29481776	      7.82491009	      4.70843456
      0.03333333	      5.84551585	     -2.83318153	    104.63874501	      0.24611039	      0.86082225	      0.64121552	      0.38952070	      6.29223276	    -24.20967311	      8.21037054	      0.14329800	     31.57975826	      5.44127242	      0.00000000	     -1.36785414	     -7.08222351	     30.92714785	      1.21391716	      0.02118685	     28.68678543	    -15.38426592	      0.00000000	     -0.01504108	      1.18616954	     -2.40587996	     -0.02793279	      1.57760549	     -2.55624746	     -0.02471099	      2.88405263	     -2.55624746	     -0.01719045	      2.88405263	     -2.10514497	     -0.01396715	      2.41883694	     -1.95477747	     -0.00859447	      1.83737662	     -1.80440997	     -0.10743692	     13.41818712	    -13.38078260	      0.00000000	      0.00000000	     19.48538942	     -2.14212097	      1.59485161	      9.39886791	    -12.60875368	     72.22828261	     34.99344561	     85.65039982	     -7.55546510	      0.98685022	     14.44777320	      0.98957335	     69.18032148	     31.61171532	     79.78978961	      8.45735531	      6.67075116
      0.05000000	      5.81679504	     -3.27131352	    104.10514350	      0.24632046	      0.86059388	      0.64274631	      1.21887959	      5.95085371	    -23.85522321	      8.79425738	      0.15348875	     32.23522681	      5.64346047	      0.00000000	     -0.85742555	     -6.81271532	     30.37909823	      1.39902651	      0.02441762	     29.19891003	    -15.62670595	      0.00000000	     -0.01280262	      1.19424407	     -2.33079430	     -0.02377574	      1.58834461	     -2.47646895	     -0.02103342	      2.90368503	     -2.47646895	     -0.01463211	      2.90368503	     -2.03944502	     -0.01188851	      2.43530250	     -1.89377037	     -0.00731541	      1.84988406	     -1.74809573	     -0.09144781	     13.50952775	    -12.96317868	      0.00000000	      0.00000000	     20.36209677	     -2.17211322	      2.29701884	      9.42624217	    -12.49124755	     70.87418828	     34.84853107	     84.11659427	     -6.27873642	      0.67231255	     14.64951336	      1.16128575	     68.56912370	     31.52793313	     79.29743774	      8.40543602	      7.11369375
      0.06666667	      5.77543706	     -3.65170581	    103.04703852	      0.24726418	      0.86041396	      0.64279108	      1.81429080	      5.68239537	    -23.20410648	      9.17470378	      0.16012879	     32.68836064	      6.10225771	      0.00000000	     -0.70977450	     -6.65472407	     29.24666933	      1.26420490	      0.02206454	     29.35629617	    -15.52071948	      0.00000000	      0.01188221	      1.19423422	     -2.17240932	      0.02206646	      1.58833152	     -2.30818490	      0.01952129	      2.90366109	     -2.30818490	      0.01358018	      2.90366109	     -1.90085815	      0.01103382	      2.43528243	     -1.76508257	      0.00678950	      1.84986881	     -1.62930699	      0.08487346	     13.50941637	    -12.08228891	      0.00000000	      0.00000000	     20.36006291	     -1.83933972	      2.98496672	      8.66378796	    -12.39153764	     67.23246194	     34.84632454	     78.64424288	     -1.70827718	      1.35239422	     14.32287541	      1.18167309	     67.41786642	     31.86370461	     78.57963846	      7.97926385	      8.33738879
      0.08333333	      5.72037997	     -3.82182198	    102.83712133	      0.24736455	      0.86042136	      0.64298621	      2.09068625	      5.55792071	    -22.68288183	      9.23125118	      0.16111573	     32.81426875	      5.57580146	      0.00000000	     -0.56705725	     -6.54367191	     29.20466316	      1.25030733	      0.02182198	     29.37877934	    -15.36303744	      0.00000000	      0.01523925	      1.19072667	     -2.21386052	      0.02830081	      1.58366647	     -2.35222680	      0.02503657	      2.89513282	     -2.35222680	      0.01741694	      2.89513282	     -1.93712795	      0.01415117	      2.42812982	     -1.79876167	      0.00870771	      1.84443561	     -1.66039539	      0.10885245	     13.46973820	    -12.31282804	      0.00000000	      0.00000000	     20.56327361	     -1.88394084	      3.22846810	      9.19575573	    -12.47008926	     68.73970279	     34.97527367	     69.45601160	     -0.51758163	      2.04024722	     14.21834453	      1.10703842	     66.85541714	     31.95053882	     79.31139947	      7.67343997	      8.33288737
